<?xml version="1.0" encoding="utf-8"?>
<!-- Generator: Adobe Illustrator 19.0.0, SVG Export Plug-In . SVG Version: 6.00 Build 0)  -->
<svg version="1.1" id="Layer_5" xmlns="http://www.w3.org/2000/svg" xmlns:xlink="http://www.w3.org/1999/xlink" x="0px" y="0px"
	 viewBox="0 0 488 800" style="enable-background:new 0 0 488 800;" xml:space="preserve">
<style type="text/css">
	.st0{fill:#330031;}
</style>
<path id="XMLID_543_" class="st0" d="M139.4,584.6v165c0,7-2.6,13.1-7.7,18.2c-5.1,5.1-11.2,7.7-18.2,7.7H40.6
	c-7,0-13.1-2.5-18.2-7.7c-5.1-5.1-7.7-11.2-7.7-18.2V120.4c0-7,2.5-13.1,7.7-18.2c5.1-5.1,11.2-7.7,18.2-7.7h72.9
	c7,0,13.1,2.6,18.2,7.7c5.1,5.1,7.7,11.2,7.7,18.2v302.1L299.5,293c3.8-3.2,8.8-6.7,14.9-10.5c6.1-3.8,13.6-5.8,22.5-5.8h97.8
	c6.4,0,11.8,2.2,16.3,6.7c4.5,4.5,6.7,9.9,6.7,16.3c0,3.2-0.5,6.2-1.4,9.1c-1,2.9-4,6.2-9.1,10.1L223.8,499.2l244.5,235
	c3.8,3.8,6.4,7,7.7,9.6c1.3,2.6,1.9,5.4,1.9,8.6c0,6.4-2.2,11.8-6.7,16.3c-4.5,4.5-9.9,6.7-16.3,6.7h-93c-9.6,0-17.7-1.9-24.5-5.8
	c-6.7-3.8-11.7-7.3-14.9-10.5L139.4,584.6z"/>
</svg>
