<?xml version="1.0" encoding="utf-8"?>
<!-- Generator: Adobe Illustrator 19.0.0, SVG Export Plug-In . SVG Version: 6.00 Build 0)  -->
<svg version="1.1" id="Layer_5" xmlns="http://www.w3.org/2000/svg" xmlns:xlink="http://www.w3.org/1999/xlink" x="0px" y="0px"
	 viewBox="0 0 504 800" style="enable-background:new 0 0 504 800;" xml:space="preserve">
<style type="text/css">
	.st0{fill:#330031;}
</style>
<g id="XMLID_358_">
	<path id="XMLID_362_" class="st0" d="M492.5,478.1c-1.9-29.4-9.1-56.9-21.6-82.5c-12.5-25.6-29.1-48-49.9-67.1
		c-20.8-19.2-45.4-34.2-73.8-45.1c-28.5-10.9-60.3-16.3-95.4-16.3c-35.2,0-67,5.4-95.4,16.3c-28.5,10.9-53.1,25.9-73.8,45.1
		c-20.8,19.2-37.4,41.6-49.9,67.1c-12.5,25.6-19.7,53.1-21.6,82.5c-0.6,5.8-1.1,13.1-1.4,22.1c-0.3,9-0.5,17.9-0.5,26.9
		c0,9,0.1,17.7,0.5,26.4c0.3,8.6,0.8,15.8,1.4,21.6c2.5,29.4,9.9,56.9,22.1,82.5c12.1,25.6,28.6,47.8,49.4,66.7
		c20.8,18.9,45.4,33.7,73.8,44.6c28.4,10.9,60.3,16.3,95.4,16.3c35.2,0,67-5.4,95.4-16.3c28.4-10.9,53.1-25.7,73.8-44.6
		c20.8-18.9,37.2-41.1,49.4-66.7c12.1-25.6,19.5-53.1,22.1-82.5c0.6-5.8,1-12.9,1-21.6c0-8.6,0-17.4,0-26.4c0-8.9,0-17.9,0-26.9
		C493.4,491.2,493.1,483.9,492.5,478.1z M368.7,526.1c0,8.3,0,16.5,0,24.5c0,8-0.3,14.2-1,18.7c-1.9,19.8-6.6,36.3-13.9,49.4
		c-7.4,13.1-16.5,23.5-27.3,31.2c-10.9,7.7-22.7,12.9-35.5,15.8c-12.8,2.9-25.9,4.3-39.3,4.3c-13.4,0-26.5-1.4-39.3-4.3
		c-12.8-2.9-24.6-8.2-35.5-15.8c-10.9-7.7-20-18.1-27.3-31.2c-7.4-13.1-12-29.6-13.9-49.4c-0.6-4.5-1.1-10.7-1.4-18.7
		c-0.3-8-0.5-16.1-0.5-24.5c0-8.3,0.1-16.3,0.5-24c0.3-7.7,0.8-14.1,1.4-19.2c1.9-19.8,6.5-36.3,13.9-49.4
		c7.3-13.1,16.5-23.5,27.3-31.2c10.9-7.7,22.7-12.9,35.5-15.8c12.8-2.9,25.9-4.3,39.3-4.3c13.4,0,26.5,1.4,39.3,4.3
		c12.8,2.9,24.6,8.2,35.5,15.8c10.9,7.7,20,18.1,27.3,31.2c7.3,13.1,12,29.6,13.9,49.4c0.6,5.1,1,11.5,1,19.2
		S368.7,517.8,368.7,526.1z"/>
	<circle id="XMLID_366_" class="st0" cx="251.9" cy="88.2" r="72.2"/>
</g>
</svg>
