<?xml version="1.0" encoding="utf-8"?>
<!-- Generator: Adobe Illustrator 19.0.0, SVG Export Plug-In . SVG Version: 6.00 Build 0)  -->
<svg version="1.1" id="Layer_5" xmlns="http://www.w3.org/2000/svg" xmlns:xlink="http://www.w3.org/1999/xlink" x="0px" y="0px"
	 viewBox="0 0 762 800" style="enable-background:new 0 0 762 800;" xml:space="preserve">
<style type="text/css">
	.st0{fill:#330031;}
</style>
<path id="XMLID_545_" class="st0" d="M536.9,574l86.3-274.3c1.9-5.1,4.6-10.2,8.2-15.3c3.5-5.1,9.7-7.7,18.7-7.7h72.9
	c7,0,13.1,2.6,18.2,7.7c5.1,5.1,7.7,11.2,7.7,18.2c0,2.6-0.3,4.8-1,6.7L603,751.4c-1.9,5.8-4.8,11.2-8.6,16.3
	c-3.8,5.1-10.2,7.7-19.2,7.7h-72.9c-9,0-15.2-2.5-18.7-7.7c-3.5-5.1-6.6-10.5-9.1-16.3l-93-256.1l-93,256.1
	c-2.6,5.8-5.6,11.2-9.1,16.3c-3.5,5.1-9.8,7.7-18.7,7.7h-72.9c-9,0-15.3-2.5-19.2-7.7c-3.8-5.1-6.7-10.5-8.6-16.3L15.2,309.3
	c-0.6-1.9-1-4.2-1-6.7c0-7,2.5-13.1,7.7-18.2c5.1-5.1,11.2-7.7,18.2-7.7H113c8.9,0,15.2,2.6,18.7,7.7c3.5,5.1,6.2,10.2,8.1,15.3
	L226.1,574l92.1-274.3c1.3-5.1,4.3-10.2,9.1-15.3c4.8-5.1,10.7-7.7,17.7-7.7h72.9c7,0,12.9,2.6,17.7,7.7c4.8,5.1,7.8,10.2,9.1,15.3
	L536.9,574z"/>
</svg>
