<?xml version="1.0" encoding="utf-8"?>
<!-- Generator: Adobe Illustrator 19.0.0, SVG Export Plug-In . SVG Version: 6.00 Build 0)  -->
<svg version="1.1" id="Layer_4" xmlns="http://www.w3.org/2000/svg" xmlns:xlink="http://www.w3.org/1999/xlink" x="0px" y="0px"
	 viewBox="0 0 800 800" style="enable-background:new 0 0 800 800;" xml:space="preserve">
<style type="text/css">
	.st0{fill:#330031;}
</style>
<path id="XMLID_225_" class="st0" d="M648,196.1c-67.5-67.5-157.6-98.4-245.9-92.9C318.5,38.1,197.6,44,120.8,120.8
	C44,197.6,38.1,318.5,103.2,402.1c-5.5,88.3,25.5,178.4,92.9,245.9c124.8,124.8,327.1,124.8,451.8,0S772.7,320.9,648,196.1z
	 M163.5,271.8c0-59.4,48.2-107.6,107.6-107.6s107.6,48.2,107.6,107.6S330.4,379.4,271,379.4S163.5,331.2,163.5,271.8z M572.7,572.7
	c-83.2,83.2-218,83.2-301.2,0c-27.4-27.4-45.8-60.5-55.1-95.5c71.1,19,150,0.6,205.7-55.2c55.7-55.7,74.1-134.7,55.2-205.7
	c35,9.3,68,27.7,95.5,55.1C655.9,354.6,655.9,489.5,572.7,572.7z"/>
</svg>
