<?xml version="1.0" encoding="utf-8"?>
<!-- Generator: Adobe Illustrator 19.0.0, SVG Export Plug-In . SVG Version: 6.00 Build 0)  -->
<svg version="1.1" id="Layer_3" xmlns="http://www.w3.org/2000/svg" xmlns:xlink="http://www.w3.org/1999/xlink" x="0px" y="0px"
	 viewBox="0 0 800 800" style="enable-background:new 0 0 800 800;" xml:space="preserve">
<style type="text/css">
	.st0{fill:#330031;}
</style>
<path id="XMLID_216_" class="st0" d="M717.3,240.3H559.8V82.7c0-30.6-24.8-55.4-55.4-55.4H82.7c-30.6,0-55.4,24.8-55.4,55.4v421.7
	c0,30.6,24.8,55.4,55.4,55.4h157.6l0,157.6c0,30.6,24.8,55.4,55.4,55.4h421.7c30.6,0,55.4-24.8,55.4-55.4V295.7
	C772.7,265.1,747.9,240.3,717.3,240.3z M240.3,453.2L240.3,453.2H133.8V133.8h319.5h0v106.5l0,0v0H295.7
	c-30.6,0-55.4,24.8-55.4,55.4L240.3,453.2z M666.3,666.2H346.8h0l0-319.5h319.5V666.2z"/>
</svg>
