<?xml version="1.0" encoding="utf-8"?>
<!-- Generator: Adobe Illustrator 19.0.0, SVG Export Plug-In . SVG Version: 6.00 Build 0)  -->
<svg version="1.1" id="Layer_2" xmlns="http://www.w3.org/2000/svg" xmlns:xlink="http://www.w3.org/1999/xlink" x="0px" y="0px"
	 viewBox="0 0 800 800" style="enable-background:new 0 0 800 800;" xml:space="preserve">
<style type="text/css">
	.st0{fill:#330031;}
</style>
<path id="XMLID_204_" class="st0" d="M372.2,15L80.9,183.2c-17.2,9.9-27.7,28.2-27.7,48.1l0.6,336.6c0,19.7,10.5,37.9,27.6,47.8
	l291,169.2c17.2,10,38.5,10,55.7,0l291.3-169.2c17.1-9.9,27.6-28.2,27.6-47.9V231.2c0-19.8-10.6-38.1-27.7-48L427.6,15
	C410.4,5.1,389.3,5.1,372.2,15z M400,338.8L212.2,230.4L400,122l187.8,108.4L400,338.8z M346.7,431v216.4l-187.1-108V323L346.7,431z
	 M640.3,539.4L453.2,647.4V431L640.3,323V539.4z"/>
</svg>
