<?xml version="1.0" encoding="utf-8"?>
<!-- Generator: Adobe Illustrator 19.0.0, SVG Export Plug-In . SVG Version: 6.00 Build 0)  -->
<svg version="1.1" id="Layer_1" xmlns="http://www.w3.org/2000/svg" xmlns:xlink="http://www.w3.org/1999/xlink" x="0px" y="0px"
	 viewBox="0 0 800 800" style="enable-background:new 0 0 800 800;" xml:space="preserve">
<style type="text/css">
	.st0{fill:#330031;}
</style>
<path id="XMLID_147_" class="st0" d="M254.4,180.1V129c0-15.3-12.4-27.7-27.7-27.7H96.8c-30.6,0-55.4,24.8-55.4,55.4v486.6
	c0,30.6,24.8,55.4,55.4,55.4h129.9c15.3,0,27.7-12.4,27.7-27.7v-51.1c0-15.3-12.4-27.7-27.7-27.7h-78.8V207.8h78.8
	C242,207.8,254.4,195.4,254.4,180.1z"/>
<path id="XMLID_145_" class="st0" d="M545.6,129v51.1c0,15.3,12.4,27.7,27.7,27.7h78.8v384.4h-78.8c-15.3,0-27.7,12.4-27.7,27.7V671
	c0,15.3,12.4,27.7,27.7,27.7h129.9c30.6,0,55.4-24.8,55.4-55.4V156.7c0-30.6-24.8-55.4-55.4-55.4H573.3
	C558,101.3,545.6,113.7,545.6,129z"/>
<circle id="XMLID_146_" class="st0" cx="293.8" cy="469.4" r="64.6"/>
<circle id="XMLID_15_" class="st0" cx="506.2" cy="469.4" r="64.6"/>
</svg>
